<mxfile host="app.diagrams.net" agent="Mozilla/5.0 (X11; Linux x86_64; rv:140.0) Gecko/20100101 Firefox/140.0" version="28.0.7" pages="2">
  <diagram name="DFD0" id="jpEgUMkhKl0W7dWPEIJx">
    <mxGraphModel dx="1455" dy="685" grid="1" gridSize="10" guides="1" tooltips="1" connect="1" arrows="1" fold="1" page="1" pageScale="1" pageWidth="850" pageHeight="1100" math="0" shadow="0">
      <root>
        <mxCell id="0" />
        <mxCell id="1" parent="0" />
        <mxCell id="j-Xekcq_S_CdKjPfwq5b-44" value="Customer" style="shape=rectangle;whiteSpace=wrap;html=1;fillColor=#e1f5fe;" vertex="1" parent="1">
          <mxGeometry x="120" y="60" width="120" height="40" as="geometry" />
        </mxCell>
        <mxCell id="j-Xekcq_S_CdKjPfwq5b-45" value="Supplier" style="shape=rectangle;whiteSpace=wrap;html=1;fillColor=#e1f5fe;" vertex="1" parent="1">
          <mxGeometry x="530" y="400" width="120" height="40" as="geometry" />
        </mxCell>
        <mxCell id="j-Xekcq_S_CdKjPfwq5b-46" value="1.0 Take Order" style="ellipse;whiteSpace=wrap;html=1;fillColor=#fff9c4;" vertex="1" parent="1">
          <mxGeometry x="320" y="190" width="120" height="60" as="geometry" />
        </mxCell>
        <mxCell id="j-Xekcq_S_CdKjPfwq5b-47" value="2.0 Prepare Order" style="ellipse;whiteSpace=wrap;html=1;fillColor=#fff9c4;" vertex="1" parent="1">
          <mxGeometry x="530" y="50" width="120" height="60" as="geometry" />
        </mxCell>
        <mxCell id="j-Xekcq_S_CdKjPfwq5b-48" value="3.0 Process Payment" style="ellipse;whiteSpace=wrap;html=1;fillColor=#fff9c4;" vertex="1" parent="1">
          <mxGeometry x="120" y="190" width="120" height="60" as="geometry" />
        </mxCell>
        <mxCell id="j-Xekcq_S_CdKjPfwq5b-49" value="4.0 Manage Inventory" style="ellipse;whiteSpace=wrap;html=1;fillColor=#fff9c4;" vertex="1" parent="1">
          <mxGeometry x="520" y="260" width="140" height="60" as="geometry" />
        </mxCell>
        <mxCell id="j-Xekcq_S_CdKjPfwq5b-50" value="Orders DB" style="shape=cylinder;whiteSpace=wrap;html=1;fillColor=#c8e6c9;" vertex="1" parent="1">
          <mxGeometry x="330" y="300" width="100" height="60" as="geometry" />
        </mxCell>
        <mxCell id="j-Xekcq_S_CdKjPfwq5b-51" value="Menu Items" style="shape=cylinder;whiteSpace=wrap;html=1;fillColor=#c8e6c9;" vertex="1" parent="1">
          <mxGeometry x="730" y="50" width="100" height="60" as="geometry" />
        </mxCell>
        <mxCell id="j-Xekcq_S_CdKjPfwq5b-52" value="Payments DB" style="shape=cylinder;whiteSpace=wrap;html=1;fillColor=#c8e6c9;" vertex="1" parent="1">
          <mxGeometry x="130" y="340" width="100" height="60" as="geometry" />
        </mxCell>
        <mxCell id="j-Xekcq_S_CdKjPfwq5b-53" value="Inventory DB" style="shape=cylinder;whiteSpace=wrap;html=1;fillColor=#c8e6c9;" vertex="1" parent="1">
          <mxGeometry x="720" y="260" width="100" height="60" as="geometry" />
        </mxCell>
        <mxCell id="j-Xekcq_S_CdKjPfwq5b-54" style="endArrow=block;html=1;strokeColor=#000000;" edge="1" parent="1" source="j-Xekcq_S_CdKjPfwq5b-44" target="j-Xekcq_S_CdKjPfwq5b-46">
          <mxGeometry relative="1" as="geometry" />
        </mxCell>
        <mxCell id="j-Xekcq_S_CdKjPfwq5b-55" style="endArrow=block;html=1;strokeColor=#000000;" edge="1" parent="1" source="j-Xekcq_S_CdKjPfwq5b-46" target="j-Xekcq_S_CdKjPfwq5b-50">
          <mxGeometry relative="1" as="geometry" />
        </mxCell>
        <mxCell id="j-Xekcq_S_CdKjPfwq5b-56" style="endArrow=block;html=1;strokeColor=#000000;" edge="1" parent="1" source="j-Xekcq_S_CdKjPfwq5b-46" target="j-Xekcq_S_CdKjPfwq5b-47">
          <mxGeometry relative="1" as="geometry" />
        </mxCell>
        <mxCell id="j-Xekcq_S_CdKjPfwq5b-57" style="endArrow=block;html=1;strokeColor=#000000;" edge="1" parent="1" source="j-Xekcq_S_CdKjPfwq5b-51" target="j-Xekcq_S_CdKjPfwq5b-47">
          <mxGeometry relative="1" as="geometry" />
        </mxCell>
        <mxCell id="j-Xekcq_S_CdKjPfwq5b-58" style="endArrow=block;html=1;strokeColor=#000000;" edge="1" parent="1" source="j-Xekcq_S_CdKjPfwq5b-47" target="j-Xekcq_S_CdKjPfwq5b-44">
          <mxGeometry relative="1" as="geometry" />
        </mxCell>
        <mxCell id="j-Xekcq_S_CdKjPfwq5b-59" style="endArrow=block;html=1;strokeColor=#000000;" edge="1" parent="1" source="j-Xekcq_S_CdKjPfwq5b-44" target="j-Xekcq_S_CdKjPfwq5b-48">
          <mxGeometry relative="1" as="geometry" />
        </mxCell>
        <mxCell id="j-Xekcq_S_CdKjPfwq5b-60" style="endArrow=block;html=1;strokeColor=#000000;" edge="1" parent="1" source="j-Xekcq_S_CdKjPfwq5b-48" target="j-Xekcq_S_CdKjPfwq5b-52">
          <mxGeometry relative="1" as="geometry" />
        </mxCell>
        <mxCell id="j-Xekcq_S_CdKjPfwq5b-61" style="endArrow=block;html=1;strokeColor=#000000;" edge="1" parent="1" source="j-Xekcq_S_CdKjPfwq5b-47" target="j-Xekcq_S_CdKjPfwq5b-49">
          <mxGeometry relative="1" as="geometry" />
        </mxCell>
        <mxCell id="j-Xekcq_S_CdKjPfwq5b-62" style="endArrow=block;html=1;strokeColor=#000000;" edge="1" parent="1" source="j-Xekcq_S_CdKjPfwq5b-49" target="j-Xekcq_S_CdKjPfwq5b-45">
          <mxGeometry relative="1" as="geometry" />
        </mxCell>
        <mxCell id="j-Xekcq_S_CdKjPfwq5b-63" style="endArrow=block;html=1;strokeColor=#000000;" edge="1" parent="1" source="j-Xekcq_S_CdKjPfwq5b-45" target="j-Xekcq_S_CdKjPfwq5b-49">
          <mxGeometry relative="1" as="geometry" />
        </mxCell>
        <mxCell id="j-Xekcq_S_CdKjPfwq5b-64" style="endArrow=block;html=1;strokeColor=#000000;" edge="1" parent="1" source="j-Xekcq_S_CdKjPfwq5b-49" target="j-Xekcq_S_CdKjPfwq5b-53">
          <mxGeometry relative="1" as="geometry" />
        </mxCell>
      </root>
    </mxGraphModel>
  </diagram>
  <diagram id="yKsZI8Y5tHXR3fcKcjDm" name="Page-2">
    <mxGraphModel grid="1" page="1" gridSize="10" guides="1" tooltips="1" connect="1" arrows="1" fold="1" pageScale="1" pageWidth="850" pageHeight="1100" math="0" shadow="0">
      <root>
        <mxCell id="0" />
        <mxCell id="1" parent="0" />
      </root>
    </mxGraphModel>
  </diagram>
</mxfile>
